<svg width="54" height="76" xmlns="http://www.w3.org/2000/svg" viewBox="0 0 54 76"><path d="M 24.0 70.5 L 23.0 70.5 L 22.0 70.5 L 21.0 70.5 L 20.0 70.5 L 19.5 70.0 L 19.0 69.5 L 18.5 69.0 L 18.5 68.0 L 18.5 67.0 L 18.5 66.0 L 19.0 65.5 L 19.5 65.0 L 19.5 64.0 L 19.5 63.0 L 19.5 62.0 L 19.5 61.0 L 19.5 60.0 L 19.5 59.0 L 19.5 58.0 L 19.5 57.0 L 19.5 56.0 L 19.5 55.0 L 19.5 54.0 L 19.5 53.0 L 19.5 52.0 L 19.5 51.0 L 19.5 50.0 L 19.5 49.0 L 19.5 48.0 L 19.0 47.5 L 18.5 47.0 L 18.5 46.0 L 18.5 45.0 L 18.0 44.5 L 17.5 44.0 L 17.5 43.0 L 17.0 42.5 L 16.5 42.0 L 16.5 41.0 L 16.0 40.5 L 15.5 40.0 L 15.5 39.0 L 15.0 38.5 L 14.5 38.0 L 14.5 37.0 L 14.0 36.5 L 13.5 36.0 L 13.0 35.5 L 12.5 35.0 L 12.5 34.0 L 12.0 33.5 L 11.5 33.0 L 11.0 32.5 L 10.5 32.0 L 10.5 31.0 L 10.0 30.5 L 9.5 30.0 L 9.5 29.0 L 9.0 28.5 L 8.5 28.0 L 8.5 27.0 L 8.0 26.5 L 7.5 26.0 L 7.5 25.0 L 7.0 24.5 L 6.5 24.0 L 6.5 23.0 L 6.5 22.0 L 6.5 21.0 L 6.5 20.0 L 6.5 19.0 L 6.5 18.0 L 6.5 17.0 L 6.5 16.0 L 6.5 15.0 L 6.5 14.0 L 6.5 13.0 L 7.0 12.5 L 7.5 12.0 L 7.5 11.0 L 8.0 10.5 L 8.5 10.0 L 9.0 9.5 L 9.5 9.0 L 9.5 8.0 L 10.0 7.5 L 11.0 7.5 L 11.5 7.0 L 12.0 6.5 L 12.5 6.0 L 13.0 5.5 L 14.0 5.5 L 15.0 5.5 L 16.0 5.5 L 17.0 5.5 L 17.5 5.0 L 18.0 4.5 L 19.0 4.5 L 19.5 4.0 L 20.0 3.5 L 21.0 3.5 L 22.0 3.5 L 23.0 3.5 L 24.0 3.5 L 24.5 4.0 L 25.0 4.5 L 26.0 4.5 L 26.5 5.0 L 27.0 5.5 L 28.0 5.5 L 28.5 6.0 L 29.0 6.5 L 30.0 6.5 L 31.0 6.5 L 32.0 6.5 L 32.5 7.0 L 33.0 7.5 L 34.0 7.5 L 35.0 7.5 L 36.0 7.5 L 36.5 8.0 L 37.0 8.5 L 38.0 8.5 L 39.0 8.5 L 39.5 9.0 L 40.0 9.5 L 40.5 10.0 L 41.0 10.5 L 41.5 11.0 L 42.0 11.5 L 42.5 12.0 L 43.0 12.5 L 43.5 13.0 L 44.0 13.5 L 44.5 14.0 L 45.0 14.5 L 45.5 15.0 L 45.5 16.0 L 46.0 16.5 L 46.5 17.0 L 46.5 18.0 L 46.5 19.0 L 47.0 19.5 L 47.5 20.0 L 47.5 21.0 L 47.5 22.0 L 47.5 23.0 L 47.5 24.0 L 47.5 25.0 L 47.5 26.0 L 47.5 27.0 L 47.5 28.0 L 47.5 29.0 L 47.5 30.0 L 47.5 31.0 L 47.5 32.0 L 47.5 33.0 L 47.5 34.0 L 47.5 35.0 L 47.5 36.0 L 47.5 37.0 L 47.0 37.5 L 46.5 38.0 L 46.5 39.0 L 46.5 40.0 L 46.0 40.5 L 45.5 41.0 L 45.5 42.0 L 45.0 42.5 L 44.5 43.0 L 44.5 44.0 L 44.0 44.5 L 43.5 45.0 L 43.0 45.5 L 42.5 46.0 L 42.5 47.0 L 42.0 47.5 L 41.5 48.0 L 41.0 48.5 L 40.5 49.0 L 40.0 49.5 L 39.5 50.0 L 39.0 50.5 L 38.5 51.0 L 38.5 52.0 L 38.0 52.5 L 37.5 53.0 L 37.0 53.5 L 36.5 54.0 L 36.0 54.5 L 35.5 55.0 L 35.0 55.5 L 34.5 56.0 L 34.5 57.0 L 34.0 57.5 L 33.5 58.0 L 33.0 58.5 L 32.5 59.0 L 32.0 59.5 L 31.5 60.0 L 31.5 61.0 L 31.0 61.5 L 30.5 62.0 L 30.0 62.5 L 29.5 63.0 L 29.5 64.0 L 29.0 64.5 L 28.5 65.0 L 28.5 66.0 L 28.0 66.5 L 27.5 67.0 L 27.0 67.5 L 26.5 68.0 L 26.5 69.0 L 26.0 69.5 L 25.0 69.5 L 24.5 70.0 L 24.0 70.5 Z" fill="none" stroke="black" stroke-width="1" /></svg>