<svg width="316" height="417" xmlns="http://www.w3.org/2000/svg" viewBox="0 0 316 417"><path d="M 150.0 346.5 L 149.5 346.0 L 149.0 345.5 L 148.0 345.5 L 147.5 345.0 L 147.0 344.5 L 146.5 344.0 L 146.0 343.5 L 145.0 343.5 L 144.5 343.0 L 144.0 342.5 L 143.5 342.0 L 143.0 341.5 L 142.5 341.0 L 142.0 340.5 L 141.0 340.5 L 140.5 340.0 L 140.0 339.5 L 139.5 339.0 L 139.0 338.5 L 138.5 338.0 L 138.0 337.5 L 137.5 337.0 L 137.0 336.5 L 136.5 336.0 L 136.0 335.5 L 135.5 335.0 L 135.0 334.5 L 134.5 334.0 L 134.0 333.5 L 133.5 333.0 L 133.0 332.5 L 132.5 332.0 L 132.0 331.5 L 131.0 331.5 L 130.5 331.0 L 130.0 330.5 L 129.5 330.0 L 129.0 329.5 L 128.5 329.0 L 128.0 328.5 L 127.0 328.5 L 126.5 328.0 L 126.0 327.5 L 125.5 327.0 L 125.5 326.0 L 125.0 325.5 L 124.5 325.0 L 124.0 324.5 L 123.5 324.0 L 123.0 323.5 L 122.5 323.0 L 122.0 322.5 L 121.5 322.0 L 121.0 321.5 L 120.5 321.0 L 120.0 320.5 L 119.5 320.0 L 119.0 319.5 L 118.5 319.0 L 118.0 318.5 L 117.5 318.0 L 117.0 317.5 L 116.5 317.0 L 116.0 316.5 L 115.5 316.0 L 115.5 315.0 L 115.0 314.5 L 114.5 314.0 L 114.0 313.5 L 113.5 313.0 L 113.0 312.5 L 112.5 312.0 L 112.0 311.5 L 111.5 311.0 L 111.5 310.0 L 111.0 309.5 L 110.5 309.0 L 110.0 308.5 L 109.5 308.0 L 109.5 307.0 L 109.0 306.5 L 108.5 306.0 L 108.5 305.0 L 108.0 304.5 L 107.5 304.0 L 107.0 303.5 L 106.5 303.0 L 106.5 302.0 L 106.0 301.5 L 105.5 301.0 L 105.5 300.0 L 105.0 299.5 L 104.5 299.0 L 104.0 298.5 L 103.5 298.0 L 103.5 297.0 L 103.0 296.5 L 102.5 296.0 L 102.0 295.5 L 101.5 295.0 L 101.5 294.0 L 101.0 293.5 L 100.5 293.0 L 100.5 292.0 L 100.0 291.5 L 99.5 291.0 L 99.5 290.0 L 99.5 289.0 L 99.5 288.0 L 99.5 287.0 L 99.0 286.5 L 98.5 286.0 L 98.5 285.0 L 98.5 284.0 L 98.5 283.0 L 98.0 282.5 L 97.5 282.0 L 97.5 281.0 L 97.5 280.0 L 97.5 279.0 L 97.5 278.0 L 97.5 277.0 L 97.0 276.5 L 96.5 276.0 L 96.5 275.0 L 96.5 274.0 L 96.5 273.0 L 96.5 272.0 L 96.5 271.0 L 96.5 270.0 L 96.0 269.5 L 95.5 269.0 L 95.5 268.0 L 95.5 267.0 L 95.5 266.0 L 95.0 265.5 L 94.5 265.0 L 94.0 264.5 L 93.5 264.0 L 93.5 263.0 L 93.0 262.5 L 92.5 262.0 L 92.0 261.5 L 91.5 261.0 L 91.0 260.5 L 90.5 260.0 L 90.0 259.5 L 89.5 259.0 L 89.0 258.5 L 88.5 258.0 L 88.5 257.0 L 88.0 256.5 L 87.5 256.0 L 87.0 255.5 L 86.5 255.0 L 86.0 254.5 L 85.5 254.0 L 85.0 253.5 L 84.5 253.0 L 84.5 252.0 L 84.0 251.5 L 83.5 251.0 L 83.0 250.5 L 82.5 250.0 L 82.5 249.0 L 82.0 248.5 L 81.5 248.0 L 81.0 247.5 L 80.5 247.0 L 80.5 246.0 L 80.0 245.5 L 79.5 245.0 L 79.5 244.0 L 79.5 243.0 L 79.5 242.0 L 79.0 241.5 L 78.5 241.0 L 78.5 240.0 L 78.0 239.5 L 77.5 239.0 L 77.5 238.0 L 77.0 237.5 L 76.5 237.0 L 76.5 236.0 L 76.0 235.5 L 75.5 235.0 L 75.0 234.5 L 74.5 234.0 L 74.5 233.0 L 74.0 232.5 L 73.5 232.0 L 73.0 231.5 L 72.5 231.0 L 72.0 230.5 L 71.5 230.0 L 71.0 229.5 L 70.5 229.0 L 70.5 228.0 L 70.0 227.5 L 69.5 227.0 L 69.5 226.0 L 69.0 225.5 L 68.5 225.0 L 68.5 224.0 L 68.5 223.0 L 68.0 222.5 L 67.5 222.0 L 67.5 221.0 L 67.5 220.0 L 67.0 219.5 L 66.5 219.0 L 66.5 218.0 L 66.5 217.0 L 66.5 216.0 L 66.0 215.5 L 65.5 215.0 L 65.5 214.0 L 65.0 213.5 L 64.5 213.0 L 64.5 212.0 L 64.0 211.5 L 63.5 211.0 L 63.5 210.0 L 63.5 209.0 L 63.0 208.5 L 62.5 208.0 L 62.5 207.0 L 62.0 206.5 L 61.5 206.0 L 61.5 205.0 L 61.5 204.0 L 61.5 203.0 L 61.0 202.5 L 60.5 202.0 L 60.5 201.0 L 60.5 200.0 L 60.5 199.0 L 60.5 198.0 L 60.0 197.5 L 59.5 197.0 L 59.5 196.0 L 59.5 195.0 L 59.5 194.0 L 59.5 193.0 L 59.5 192.0 L 59.5 191.0 L 59.5 190.0 L 59.5 189.0 L 59.5 188.0 L 59.5 187.0 L 59.0 186.5 L 58.5 186.0 L 58.5 185.0 L 58.5 184.0 L 58.5 183.0 L 58.5 182.0 L 58.0 181.5 L 57.5 181.0 L 57.5 180.0 L 57.0 179.5 L 56.5 179.0 L 56.5 178.0 L 56.0 177.5 L 55.5 177.0 L 55.5 176.0 L 55.0 175.5 L 54.5 175.0 L 54.5 174.0 L 54.5 173.0 L 54.5 172.0 L 54.5 171.0 L 54.5 170.0 L 54.5 169.0 L 54.5 168.0 L 54.0 167.5 L 53.5 167.0 L 53.5 166.0 L 53.0 165.5 L 52.5 165.0 L 52.5 164.0 L 52.5 163.0 L 52.5 162.0 L 52.5 161.0 L 52.5 160.0 L 52.5 159.0 L 52.5 158.0 L 52.5 157.0 L 53.0 156.5 L 53.5 156.0 L 53.5 155.0 L 53.5 154.0 L 54.0 153.5 L 54.5 153.0 L 54.5 152.0 L 55.0 151.5 L 55.5 151.0 L 56.0 150.5 L 56.5 150.0 L 56.5 149.0 L 57.0 148.5 L 57.5 148.0 L 58.0 147.5 L 58.5 147.0 L 58.5 146.0 L 59.0 145.5 L 59.5 145.0 L 59.5 144.0 L 60.0 143.5 L 60.5 143.0 L 60.5 142.0 L 60.5 141.0 L 60.5 140.0 L 60.5 139.0 L 60.5 138.0 L 60.5 137.0 L 60.0 136.5 L 59.5 136.0 L 59.5 135.0 L 59.5 134.0 L 59.5 133.0 L 59.5 132.0 L 59.5 131.0 L 59.5 130.0 L 59.5 129.0 L 59.5 128.0 L 59.5 127.0 L 59.5 126.0 L 59.5 125.0 L 59.5 124.0 L 60.0 123.5 L 60.5 123.0 L 61.0 122.5 L 61.5 122.0 L 61.5 121.0 L 62.0 120.5 L 62.5 120.0 L 63.0 119.5 L 63.5 119.0 L 64.0 118.5 L 64.5 118.0 L 64.5 117.0 L 65.0 116.5 L 65.5 116.0 L 66.0 115.5 L 67.0 115.5 L 68.0 115.5 L 68.5 115.0 L 69.0 114.5 L 70.0 114.5 L 71.0 114.5 L 71.5 114.0 L 72.0 113.5 L 73.0 113.5 L 74.0 113.5 L 74.5 113.0 L 75.0 112.5 L 76.0 112.5 L 76.5 112.0 L 76.5 111.0 L 77.0 110.5 L 77.5 110.0 L 78.0 109.5 L 78.5 109.0 L 79.0 108.5 L 79.5 108.0 L 80.0 107.5 L 80.5 107.0 L 81.0 106.5 L 82.0 106.5 L 83.0 106.5 L 83.5 106.0 L 84.0 105.5 L 85.0 105.5 L 86.0 105.5 L 87.0 105.5 L 87.5 105.0 L 88.0 104.5 L 89.0 104.5 L 89.5 104.0 L 90.0 103.5 L 90.5 103.0 L 91.0 102.5 L 91.5 102.0 L 92.0 101.5 L 93.0 101.5 L 93.5 101.0 L 94.0 100.5 L 94.5 100.0 L 95.0 99.5 L 96.0 99.5 L 96.5 99.0 L 97.0 98.5 L 97.5 98.0 L 98.0 97.5 L 99.0 97.5 L 99.5 97.0 L 100.0 96.5 L 100.5 96.0 L 101.0 95.5 L 102.0 95.5 L 102.5 95.0 L 102.5 94.0 L 103.0 93.5 L 103.5 93.0 L 103.5 92.0 L 103.5 91.0 L 103.5 90.0 L 103.5 89.0 L 104.0 88.5 L 104.5 88.0 L 104.5 87.0 L 105.0 86.5 L 105.5 86.0 L 106.0 85.5 L 106.5 85.0 L 106.5 84.0 L 107.0 83.5 L 107.5 83.0 L 107.5 82.0 L 107.5 81.0 L 107.5 80.0 L 107.5 79.0 L 107.5 78.0 L 107.5 77.0 L 107.5 76.0 L 107.5 75.0 L 107.5 74.0 L 107.5 73.0 L 107.5 72.0 L 108.0 71.5 L 108.5 71.0 L 109.0 70.5 L 109.5 70.0 L 110.0 69.5 L 110.5 69.0 L 111.0 68.5 L 111.5 68.0 L 112.0 67.5 L 113.0 67.5 L 114.0 67.5 L 114.5 67.0 L 115.0 66.5 L 116.0 66.5 L 117.0 66.5 L 117.5 66.0 L 118.0 65.5 L 119.0 65.5 L 119.5 65.0 L 120.0 64.5 L 121.0 64.5 L 121.5 64.0 L 122.0 63.5 L 123.0 63.5 L 123.5 63.0 L 124.0 62.5 L 125.0 62.5 L 125.5 62.0 L 126.0 61.5 L 127.0 61.5 L 127.5 61.0 L 128.0 60.5 L 129.0 60.5 L 130.0 60.5 L 130.5 60.0 L 131.0 59.5 L 131.5 59.0 L 132.0 58.5 L 132.5 58.0 L 133.0 57.5 L 133.5 57.0 L 133.5 56.0 L 133.5 55.0 L 134.0 54.5 L 134.5 54.0 L 134.5 53.0 L 135.0 52.5 L 135.5 52.0 L 135.5 51.0 L 136.0 50.5 L 136.5 50.0 L 137.0 49.5 L 137.5 49.0 L 138.0 48.5 L 139.0 48.5 L 139.5 48.0 L 140.0 47.5 L 140.5 47.0 L 141.0 46.5 L 142.0 46.5 L 142.5 46.0 L 143.0 45.5 L 143.5 45.0 L 144.0 44.5 L 144.5 44.0 L 145.0 43.5 L 145.5 43.0 L 146.0 42.5 L 147.0 42.5 L 147.5 42.0 L 148.0 41.5 L 148.5 41.0 L 148.5 40.0 L 149.0 39.5 L 149.5 39.0 L 150.0 38.5 L 150.5 38.0 L 151.0 37.5 L 152.0 37.5 L 152.5 37.0 L 153.0 36.5 L 154.0 36.5 L 154.5 37.0 L 155.0 37.5 L 156.0 37.5 L 157.0 37.5 L 158.0 37.5 L 158.5 38.0 L 159.0 38.5 L 159.5 39.0 L 160.0 39.5 L 161.0 39.5 L 161.5 40.0 L 162.0 40.5 L 162.5 41.0 L 163.0 41.5 L 163.5 42.0 L 164.0 42.5 L 164.5 43.0 L 165.0 43.5 L 165.5 44.0 L 166.0 44.5 L 166.5 45.0 L 166.5 46.0 L 167.0 46.5 L 167.5 47.0 L 167.5 48.0 L 167.5 49.0 L 168.0 49.5 L 168.5 50.0 L 168.5 51.0 L 168.5 52.0 L 169.0 52.5 L 169.5 53.0 L 170.0 53.5 L 170.5 54.0 L 171.0 54.5 L 171.5 55.0 L 172.0 55.5 L 172.5 56.0 L 173.0 56.5 L 174.0 56.5 L 174.5 57.0 L 175.0 57.5 L 175.5 58.0 L 176.0 58.5 L 176.5 59.0 L 177.0 59.5 L 177.5 60.0 L 178.0 60.5 L 178.5 61.0 L 179.0 61.5 L 180.0 61.5 L 181.0 61.5 L 181.5 62.0 L 182.0 62.5 L 182.5 63.0 L 183.0 63.5 L 184.0 63.5 L 184.5 64.0 L 185.0 64.5 L 185.5 65.0 L 185.5 66.0 L 185.0 66.5 L 184.5 67.0 L 184.0 67.5 L 183.0 67.5 L 182.5 68.0 L 182.5 69.0 L 182.5 70.0 L 182.5 71.0 L 182.5 72.0 L 183.0 72.5 L 183.5 73.0 L 184.0 73.5 L 184.5 74.0 L 185.0 74.5 L 185.5 75.0 L 186.0 75.5 L 186.5 76.0 L 186.5 77.0 L 186.5 78.0 L 186.0 78.5 L 185.5 79.0 L 186.0 79.5 L 186.5 80.0 L 186.5 81.0 L 186.5 82.0 L 187.0 82.5 L 187.5 83.0 L 188.0 83.5 L 188.5 84.0 L 189.0 84.5 L 190.0 84.5 L 190.5 85.0 L 191.0 85.5 L 191.5 86.0 L 192.0 86.5 L 192.5 87.0 L 193.0 87.5 L 193.5 88.0 L 194.0 88.5 L 195.0 88.5 L 195.5 89.0 L 196.0 89.5 L 196.5 90.0 L 197.0 90.5 L 198.0 90.5 L 198.5 91.0 L 199.0 91.5 L 200.0 91.5 L 200.5 92.0 L 201.0 92.5 L 201.5 93.0 L 202.0 93.5 L 203.0 93.5 L 203.5 94.0 L 204.0 94.5 L 204.5 95.0 L 205.0 95.5 L 205.5 96.0 L 206.0 96.5 L 206.5 97.0 L 207.0 97.5 L 207.5 98.0 L 208.0 98.5 L 208.5 99.0 L 208.5 100.0 L 209.0 100.5 L 209.5 101.0 L 209.5 102.0 L 210.0 102.5 L 210.5 103.0 L 211.0 103.5 L 211.5 104.0 L 212.0 104.5 L 212.5 105.0 L 213.0 105.5 L 213.5 106.0 L 213.5 107.0 L 214.0 107.5 L 214.5 108.0 L 214.5 109.0 L 215.0 109.5 L 215.5 110.0 L 215.5 111.0 L 215.5 112.0 L 215.5 113.0 L 215.5 114.0 L 215.0 114.5 L 214.5 115.0 L 214.5 116.0 L 214.0 116.5 L 213.5 117.0 L 213.5 118.0 L 213.0 118.5 L 212.5 119.0 L 212.5 120.0 L 212.5 121.0 L 212.5 122.0 L 212.5 123.0 L 212.5 124.0 L 212.5 125.0 L 213.0 125.5 L 213.5 126.0 L 214.0 126.5 L 214.5 127.0 L 215.0 127.5 L 215.5 128.0 L 215.5 129.0 L 215.5 130.0 L 216.0 130.5 L 216.5 131.0 L 216.5 132.0 L 216.5 133.0 L 217.0 133.5 L 217.5 134.0 L 218.0 134.5 L 218.5 135.0 L 219.0 135.5 L 219.5 136.0 L 220.0 136.5 L 220.5 137.0 L 221.0 137.5 L 221.5 138.0 L 222.0 138.5 L 222.5 139.0 L 223.0 139.5 L 223.5 140.0 L 224.0 140.5 L 224.5 141.0 L 224.5 142.0 L 225.0 142.5 L 225.5 143.0 L 225.5 144.0 L 226.0 144.5 L 226.5 145.0 L 227.0 145.5 L 228.0 145.5 L 228.5 146.0 L 229.0 146.5 L 230.0 146.5 L 230.5 147.0 L 231.0 147.5 L 232.0 147.5 L 232.5 148.0 L 233.0 148.5 L 234.0 148.5 L 234.5 149.0 L 235.0 149.5 L 236.0 149.5 L 236.5 150.0 L 237.0 150.5 L 237.5 151.0 L 238.0 151.5 L 239.0 151.5 L 239.5 152.0 L 240.0 152.5 L 240.5 153.0 L 241.0 153.5 L 241.5 154.0 L 242.0 154.5 L 242.5 155.0 L 243.0 155.5 L 243.5 156.0 L 244.0 156.5 L 244.5 157.0 L 245.0 157.5 L 245.5 158.0 L 246.0 158.5 L 246.5 159.0 L 247.0 159.5 L 248.0 159.5 L 248.5 160.0 L 249.0 160.5 L 250.0 160.5 L 251.0 160.5 L 251.5 161.0 L 252.0 161.5 L 253.0 161.5 L 254.0 161.5 L 254.5 162.0 L 255.0 162.5 L 256.0 162.5 L 256.5 163.0 L 257.0 163.5 L 258.0 163.5 L 258.5 164.0 L 259.0 164.5 L 259.5 165.0 L 260.0 165.5 L 260.5 166.0 L 261.0 166.5 L 261.5 167.0 L 262.0 167.5 L 262.5 168.0 L 263.0 168.5 L 263.5 169.0 L 263.5 170.0 L 263.5 171.0 L 264.0 171.5 L 264.5 172.0 L 264.5 173.0 L 265.0 173.5 L 265.5 174.0 L 265.5 175.0 L 265.5 176.0 L 266.0 176.5 L 266.5 177.0 L 266.5 178.0 L 266.5 179.0 L 266.5 180.0 L 266.5 181.0 L 266.5 182.0 L 266.5 183.0 L 266.5 184.0 L 266.5 185.0 L 266.5 186.0 L 266.5 187.0 L 266.5 188.0 L 266.5 189.0 L 266.5 190.0 L 266.5 191.0 L 266.5 192.0 L 266.5 193.0 L 266.5 194.0 L 266.5 195.0 L 266.0 195.5 L 265.5 196.0 L 265.5 197.0 L 265.5 198.0 L 265.5 199.0 L 265.5 200.0 L 265.5 201.0 L 265.0 201.5 L 264.5 202.0 L 264.5 203.0 L 264.5 204.0 L 264.0 204.5 L 263.5 205.0 L 263.5 206.0 L 263.5 207.0 L 263.5 208.0 L 263.0 208.5 L 262.5 209.0 L 262.5 210.0 L 262.5 211.0 L 262.5 212.0 L 262.5 213.0 L 262.5 214.0 L 262.5 215.0 L 262.5 216.0 L 262.5 217.0 L 262.5 218.0 L 262.5 219.0 L 262.5 220.0 L 262.5 221.0 L 262.5 222.0 L 263.0 222.5 L 263.5 223.0 L 263.5 224.0 L 263.5 225.0 L 264.0 225.5 L 264.5 226.0 L 265.0 226.5 L 265.5 227.0 L 266.0 227.5 L 266.5 228.0 L 266.5 229.0 L 267.0 229.5 L 267.5 230.0 L 267.5 231.0 L 267.5 232.0 L 267.5 233.0 L 267.5 234.0 L 267.5 235.0 L 267.5 236.0 L 267.5 237.0 L 267.5 238.0 L 267.5 239.0 L 267.5 240.0 L 267.5 241.0 L 267.5 242.0 L 267.5 243.0 L 267.5 244.0 L 267.5 245.0 L 267.5 246.0 L 267.0 246.5 L 266.5 247.0 L 266.5 248.0 L 266.0 248.5 L 265.5 249.0 L 265.5 250.0 L 265.0 250.5 L 264.5 251.0 L 264.5 252.0 L 264.0 252.5 L 263.5 253.0 L 263.0 253.5 L 262.5 254.0 L 262.5 255.0 L 262.0 255.5 L 261.5 256.0 L 261.0 256.5 L 260.5 257.0 L 260.5 258.0 L 260.0 258.5 L 259.5 259.0 L 259.0 259.5 L 258.5 260.0 L 258.0 260.5 L 257.5 261.0 L 257.5 262.0 L 257.0 262.5 L 256.5 263.0 L 256.5 264.0 L 256.5 265.0 L 256.5 266.0 L 256.0 266.5 L 255.5 267.0 L 255.5 268.0 L 255.5 269.0 L 255.5 270.0 L 255.5 271.0 L 255.5 272.0 L 255.5 273.0 L 255.5 274.0 L 255.0 274.5 L 254.5 275.0 L 254.5 276.0 L 254.5 277.0 L 254.0 277.5 L 253.5 278.0 L 253.5 279.0 L 253.0 279.5 L 252.5 280.0 L 252.5 281.0 L 252.5 282.0 L 252.0 282.5 L 251.5 283.0 L 251.0 283.5 L 250.5 284.0 L 250.0 284.5 L 249.5 285.0 L 249.5 286.0 L 249.0 286.5 L 248.5 287.0 L 248.0 287.5 L 247.5 288.0 L 247.0 288.5 L 246.5 289.0 L 246.5 290.0 L 246.0 290.5 L 245.5 291.0 L 245.0 291.5 L 244.5 292.0 L 244.0 292.5 L 243.5 293.0 L 243.0 293.5 L 242.5 294.0 L 242.0 294.5 L 241.5 295.0 L 241.5 296.0 L 241.0 296.5 L 240.5 297.0 L 240.5 298.0 L 240.5 299.0 L 240.5 300.0 L 240.0 300.5 L 239.5 301.0 L 239.5 302.0 L 239.0 302.5 L 238.5 303.0 L 238.5 304.0 L 238.0 304.5 L 237.5 305.0 L 237.0 305.5 L 236.5 306.0 L 236.5 307.0 L 236.0 307.5 L 235.5 308.0 L 235.0 308.5 L 234.5 309.0 L 234.0 309.5 L 233.5 310.0 L 233.0 310.5 L 232.5 311.0 L 232.0 311.5 L 231.5 312.0 L 231.0 312.5 L 230.5 313.0 L 230.0 313.5 L 229.5 314.0 L 229.0 314.5 L 228.5 315.0 L 228.0 315.5 L 227.0 315.5 L 226.5 316.0 L 226.0 316.5 L 225.5 317.0 L 225.0 317.5 L 224.0 317.5 L 223.5 318.0 L 223.0 318.5 L 222.5 319.0 L 222.5 320.0 L 222.0 320.5 L 221.5 321.0 L 221.0 321.5 L 220.5 322.0 L 220.0 322.5 L 219.5 323.0 L 219.0 323.5 L 218.5 324.0 L 218.0 324.5 L 217.5 325.0 L 217.0 325.5 L 216.0 325.5 L 215.5 326.0 L 215.0 326.5 L 214.0 326.5 L 213.0 326.5 L 212.0 326.5 L 211.0 326.5 L 210.5 327.0 L 210.0 327.5 L 209.0 327.5 L 208.0 327.5 L 207.0 327.5 L 206.0 327.5 L 205.0 327.5 L 204.0 327.5 L 203.0 327.5 L 202.0 327.5 L 201.0 327.5 L 200.5 328.0 L 200.0 328.5 L 199.0 328.5 L 198.0 328.5 L 197.5 329.0 L 197.0 329.5 L 196.0 329.5 L 195.0 329.5 L 194.5 330.0 L 194.0 330.5 L 193.0 330.5 L 192.5 331.0 L 192.5 332.0 L 192.0 332.5 L 191.5 333.0 L 191.5 334.0 L 191.5 335.0 L 191.5 336.0 L 191.5 337.0 L 191.5 338.0 L 191.5 339.0 L 191.0 339.5 L 190.5 340.0 L 190.5 341.0 L 190.5 342.0 L 190.5 343.0 L 190.0 343.5 L 189.5 344.0 L 189.0 344.5 L 188.5 344.0 L 188.0 343.5 L 187.5 343.0 L 187.0 342.5 L 186.0 342.5 L 185.5 342.0 L 185.0 341.5 L 184.5 341.0 L 184.0 340.5 L 183.5 340.0 L 183.0 339.5 L 182.5 339.0 L 182.0 338.5 L 181.0 338.5 L 180.5 339.0 L 180.0 339.5 L 179.0 339.5 L 178.5 340.0 L 178.0 340.5 L 177.0 340.5 L 176.5 341.0 L 176.0 341.5 L 175.5 342.0 L 175.0 342.5 L 174.0 342.5 L 173.0 342.5 L 172.0 342.5 L 171.0 342.5 L 170.0 342.5 L 169.0 342.5 L 168.0 342.5 L 167.0 342.5 L 166.0 342.5 L 165.0 342.5 L 164.0 342.5 L 163.5 342.0 L 163.0 341.5 L 162.0 341.5 L 161.0 341.5 L 160.0 341.5 L 159.0 341.5 L 158.0 341.5 L 157.5 342.0 L 157.0 342.5 L 156.0 342.5 L 155.0 342.5 L 154.5 343.0 L 154.0 343.5 L 153.0 343.5 L 152.5 344.0 L 152.0 344.5 L 151.5 345.0 L 151.0 345.5 L 150.5 346.0 L 150.0 346.5 Z" fill="none" stroke="black" stroke-width="1" /></svg>