<svg width="162" height="291" xmlns="http://www.w3.org/2000/svg"><path d="M 87.0 262.5 L 86.0 262.5 L 85.0 262.5 L 84.5 262.0 L 84.0 261.5 L 83.0 261.5 L 82.0 261.5 L 81.0 261.5 L 80.0 261.5 L 79.0 261.5 L 78.0 261.5 L 77.0 261.5 L 76.0 261.5 L 75.5 261.0 L 75.0 260.5 L 74.0 260.5 L 73.0 260.5 L 72.0 260.5 L 71.5 260.0 L 71.0 259.5 L 70.0 259.5 L 69.0 259.5 L 68.5 259.0 L 68.0 258.5 L 67.0 258.5 L 66.5 258.0 L 66.0 257.5 L 65.0 257.5 L 64.5 257.0 L 64.0 256.5 L 63.5 256.0 L 63.0 255.5 L 62.5 255.0 L 62.0 254.5 L 61.5 254.0 L 61.0 253.5 L 60.5 253.0 L 60.5 252.0 L 60.0 251.5 L 59.5 251.0 L 59.0 250.5 L 58.5 250.0 L 58.5 249.0 L 58.0 248.5 L 57.5 248.0 L 57.0 247.5 L 56.5 247.0 L 56.5 246.0 L 56.5 245.0 L 56.0 244.5 L 55.5 244.0 L 55.0 243.5 L 54.5 243.0 L 54.5 242.0 L 54.0 241.5 L 53.5 241.0 L 53.5 240.0 L 53.0 239.5 L 52.5 239.0 L 52.0 238.5 L 51.5 238.0 L 51.0 237.5 L 50.5 237.0 L 50.5 236.0 L 50.0 235.5 L 49.5 235.0 L 49.0 234.5 L 48.5 234.0 L 48.0 233.5 L 47.5 233.0 L 47.0 232.5 L 46.5 232.0 L 46.0 231.5 L 45.5 231.0 L 45.5 230.0 L 45.0 229.5 L 44.5 229.0 L 44.0 228.5 L 43.5 228.0 L 43.0 227.5 L 42.5 227.0 L 42.5 226.0 L 42.0 225.5 L 41.5 225.0 L 41.5 224.0 L 41.0 223.5 L 40.5 223.0 L 40.5 222.0 L 40.0 221.5 L 39.5 221.0 L 39.5 220.0 L 39.0 219.5 L 38.5 219.0 L 38.5 218.0 L 38.5 217.0 L 38.0 216.5 L 37.5 216.0 L 37.5 215.0 L 37.5 214.0 L 37.5 213.0 L 37.0 212.5 L 36.5 212.0 L 36.5 211.0 L 36.5 210.0 L 36.5 209.0 L 36.5 208.0 L 36.0 207.5 L 35.5 207.0 L 35.5 206.0 L 35.5 205.0 L 35.5 204.0 L 35.0 203.5 L 34.5 203.0 L 34.5 202.0 L 34.5 201.0 L 34.5 200.0 L 34.5 199.0 L 34.0 198.5 L 33.5 198.0 L 33.5 197.0 L 33.5 196.0 L 33.5 195.0 L 33.0 194.5 L 32.5 194.0 L 32.5 193.0 L 32.5 192.0 L 32.5 191.0 L 32.5 190.0 L 32.0 189.5 L 31.5 189.0 L 31.5 188.0 L 31.5 187.0 L 31.5 186.0 L 31.5 185.0 L 31.5 184.0 L 31.0 183.5 L 30.5 183.0 L 30.5 182.0 L 30.5 181.0 L 30.5 180.0 L 30.5 179.0 L 30.5 178.0 L 30.5 177.0 L 30.0 176.5 L 29.5 176.0 L 29.5 175.0 L 29.5 174.0 L 29.5 173.0 L 29.5 172.0 L 29.5 171.0 L 29.0 170.5 L 28.5 170.0 L 28.5 169.0 L 28.5 168.0 L 28.5 167.0 L 28.5 166.0 L 28.5 165.0 L 28.0 164.5 L 27.5 164.0 L 27.5 163.0 L 27.5 162.0 L 27.5 161.0 L 27.5 160.0 L 27.5 159.0 L 27.0 158.5 L 26.5 158.0 L 26.5 157.0 L 26.5 156.0 L 26.5 155.0 L 26.5 154.0 L 26.0 153.5 L 25.5 153.0 L 25.5 152.0 L 25.5 151.0 L 25.5 150.0 L 25.5 149.0 L 25.0 148.5 L 24.5 148.0 L 24.5 147.0 L 24.5 146.0 L 24.5 145.0 L 24.0 144.5 L 23.5 144.0 L 23.5 143.0 L 23.5 142.0 L 23.5 141.0 L 23.0 140.5 L 22.5 140.0 L 22.5 139.0 L 22.5 138.0 L 22.0 137.5 L 21.5 137.0 L 21.5 136.0 L 21.5 135.0 L 21.5 134.0 L 21.0 133.5 L 20.5 133.0 L 20.5 132.0 L 20.5 131.0 L 20.5 130.0 L 20.5 129.0 L 20.5 128.0 L 20.5 127.0 L 20.5 126.0 L 20.5 125.0 L 20.5 124.0 L 20.5 123.0 L 20.5 122.0 L 21.0 121.5 L 21.5 121.0 L 21.5 120.0 L 22.0 119.5 L 22.5 119.0 L 22.5 118.0 L 23.0 117.5 L 23.5 117.0 L 24.0 116.5 L 24.5 116.0 L 24.5 115.0 L 25.0 114.5 L 25.5 114.0 L 25.5 113.0 L 26.0 112.5 L 26.5 112.0 L 27.0 111.5 L 27.5 111.0 L 27.5 110.0 L 28.0 109.5 L 28.5 109.0 L 28.5 108.0 L 29.0 107.5 L 29.5 107.0 L 29.5 106.0 L 30.0 105.5 L 30.5 105.0 L 30.5 104.0 L 31.0 103.5 L 31.5 103.0 L 31.5 102.0 L 32.0 101.5 L 32.5 101.0 L 32.5 100.0 L 32.5 99.0 L 33.0 98.5 L 33.5 98.0 L 33.5 97.0 L 33.5 96.0 L 34.0 95.5 L 34.5 95.0 L 34.5 94.0 L 34.5 93.0 L 35.0 92.5 L 35.5 92.0 L 35.5 91.0 L 35.5 90.0 L 35.5 89.0 L 36.0 88.5 L 36.5 88.0 L 36.5 87.0 L 36.5 86.0 L 37.0 85.5 L 37.5 85.0 L 37.5 84.0 L 37.5 83.0 L 37.5 82.0 L 38.0 81.5 L 38.5 81.0 L 38.5 80.0 L 38.5 79.0 L 39.0 78.5 L 39.5 78.0 L 39.5 77.0 L 39.5 76.0 L 39.5 75.0 L 40.0 74.5 L 40.5 74.0 L 40.5 73.0 L 40.5 72.0 L 41.0 71.5 L 41.5 71.0 L 41.5 70.0 L 41.5 69.0 L 42.0 68.5 L 42.5 68.0 L 42.5 67.0 L 42.5 66.0 L 42.5 65.0 L 43.0 64.5 L 43.5 64.0 L 43.5 63.0 L 44.0 62.5 L 44.5 62.0 L 44.5 61.0 L 44.5 60.0 L 45.0 59.5 L 45.5 59.0 L 45.5 58.0 L 46.0 57.5 L 46.5 57.0 L 46.5 56.0 L 47.0 55.5 L 47.5 55.0 L 47.5 54.0 L 48.0 53.5 L 48.5 53.0 L 49.0 52.5 L 49.5 52.0 L 50.0 51.5 L 50.5 51.0 L 50.5 50.0 L 51.0 49.5 L 51.5 49.0 L 52.0 48.5 L 52.5 48.0 L 53.0 47.5 L 54.0 47.5 L 54.5 47.0 L 55.0 46.5 L 55.5 46.0 L 56.0 45.5 L 57.0 45.5 L 57.5 45.0 L 58.0 44.5 L 59.0 44.5 L 59.5 44.0 L 60.0 43.5 L 60.5 43.0 L 61.0 42.5 L 62.0 42.5 L 62.5 42.0 L 63.0 41.5 L 64.0 41.5 L 65.0 41.5 L 65.5 41.0 L 66.0 40.5 L 67.0 40.5 L 67.5 40.0 L 68.0 39.5 L 69.0 39.5 L 69.5 39.0 L 70.0 38.5 L 71.0 38.5 L 72.0 38.5 L 72.5 38.0 L 73.0 37.5 L 74.0 37.5 L 74.5 37.0 L 75.0 36.5 L 76.0 36.5 L 76.5 36.0 L 77.0 35.5 L 78.0 35.5 L 79.0 35.5 L 79.5 35.0 L 80.0 34.5 L 81.0 34.5 L 82.0 34.5 L 82.5 34.0 L 83.0 33.5 L 84.0 33.5 L 85.0 33.5 L 86.0 33.5 L 87.0 33.5 L 88.0 33.5 L 88.5 33.0 L 89.0 32.5 L 90.0 32.5 L 91.0 32.5 L 92.0 32.5 L 92.5 33.0 L 93.0 33.5 L 94.0 33.5 L 95.0 33.5 L 96.0 33.5 L 97.0 33.5 L 98.0 33.5 L 98.5 34.0 L 99.0 34.5 L 100.0 34.5 L 101.0 34.5 L 101.5 35.0 L 102.0 35.5 L 103.0 35.5 L 104.0 35.5 L 104.5 36.0 L 105.0 36.5 L 106.0 36.5 L 106.5 37.0 L 107.0 37.5 L 107.5 38.0 L 108.0 38.5 L 109.0 38.5 L 109.5 39.0 L 110.0 39.5 L 110.5 40.0 L 111.0 40.5 L 111.5 41.0 L 112.0 41.5 L 112.5 42.0 L 113.0 42.5 L 113.5 43.0 L 114.0 43.5 L 114.5 44.0 L 115.0 44.5 L 115.5 45.0 L 116.0 45.5 L 116.5 46.0 L 116.5 47.0 L 117.0 47.5 L 117.5 48.0 L 118.0 48.5 L 118.5 49.0 L 118.5 50.0 L 119.0 50.5 L 119.5 51.0 L 119.5 52.0 L 120.0 52.5 L 120.5 53.0 L 120.5 54.0 L 121.0 54.5 L 121.5 55.0 L 121.5 56.0 L 121.5 57.0 L 122.0 57.5 L 122.5 58.0 L 122.5 59.0 L 122.5 60.0 L 123.0 60.5 L 123.5 61.0 L 123.5 62.0 L 123.5 63.0 L 123.5 64.0 L 124.0 64.5 L 124.5 65.0 L 124.5 66.0 L 124.5 67.0 L 124.5 68.0 L 124.5 69.0 L 125.0 69.5 L 125.5 70.0 L 125.5 71.0 L 125.5 72.0 L 125.5 73.0 L 126.0 73.5 L 126.5 74.0 L 126.5 75.0 L 126.5 76.0 L 126.5 77.0 L 126.5 78.0 L 127.0 78.5 L 127.5 79.0 L 127.5 80.0 L 127.5 81.0 L 127.5 82.0 L 127.5 83.0 L 127.5 84.0 L 128.0 84.5 L 128.5 85.0 L 128.5 86.0 L 128.5 87.0 L 128.5 88.0 L 128.5 89.0 L 128.5 90.0 L 129.0 90.5 L 129.5 91.0 L 129.5 92.0 L 129.5 93.0 L 129.5 94.0 L 129.5 95.0 L 130.0 95.5 L 130.5 96.0 L 130.5 97.0 L 130.5 98.0 L 130.5 99.0 L 131.0 99.5 L 131.5 100.0 L 131.5 101.0 L 131.5 102.0 L 131.5 103.0 L 132.0 103.5 L 132.5 104.0 L 132.5 105.0 L 132.5 106.0 L 133.0 106.5 L 133.5 107.0 L 133.5 108.0 L 133.5 109.0 L 134.0 109.5 L 134.5 110.0 L 134.5 111.0 L 135.0 111.5 L 135.5 112.0 L 135.5 113.0 L 136.0 113.5 L 136.5 114.0 L 136.5 115.0 L 137.0 115.5 L 137.5 116.0 L 137.5 117.0 L 138.0 117.5 L 138.5 118.0 L 139.0 118.5 L 139.5 119.0 L 139.5 120.0 L 140.0 120.5 L 140.5 121.0 L 140.5 122.0 L 141.0 122.5 L 141.5 123.0 L 141.5 124.0 L 142.0 124.5 L 142.5 125.0 L 142.5 126.0 L 143.0 126.5 L 143.5 127.0 L 143.5 128.0 L 144.0 128.5 L 144.5 129.0 L 144.5 130.0 L 144.5 131.0 L 144.5 132.0 L 144.5 133.0 L 144.5 134.0 L 144.5 135.0 L 144.5 136.0 L 144.5 137.0 L 144.5 138.0 L 144.0 138.5 L 143.5 139.0 L 143.5 140.0 L 143.5 141.0 L 143.0 141.5 L 142.5 142.0 L 142.5 143.0 L 142.5 144.0 L 142.0 144.5 L 141.5 145.0 L 141.0 145.5 L 140.5 146.0 L 140.5 147.0 L 140.0 147.5 L 139.5 148.0 L 139.5 149.0 L 139.5 150.0 L 139.0 150.5 L 138.5 151.0 L 138.5 152.0 L 138.0 152.5 L 137.5 153.0 L 137.5 154.0 L 137.5 155.0 L 137.5 156.0 L 137.0 156.5 L 136.5 157.0 L 136.5 158.0 L 136.5 159.0 L 136.5 160.0 L 136.5 161.0 L 136.0 161.5 L 135.5 162.0 L 135.5 163.0 L 135.5 164.0 L 135.5 165.0 L 135.5 166.0 L 135.5 167.0 L 135.5 168.0 L 135.5 169.0 L 135.0 169.5 L 134.5 170.0 L 134.5 171.0 L 134.5 172.0 L 134.5 173.0 L 134.5 174.0 L 134.5 175.0 L 134.5 176.0 L 134.5 177.0 L 134.0 177.5 L 133.5 178.0 L 133.5 179.0 L 133.5 180.0 L 133.5 181.0 L 133.5 182.0 L 133.5 183.0 L 133.5 184.0 L 133.5 185.0 L 133.5 186.0 L 133.5 187.0 L 133.0 187.5 L 132.5 188.0 L 132.5 189.0 L 132.5 190.0 L 132.5 191.0 L 132.5 192.0 L 132.5 193.0 L 132.5 194.0 L 132.5 195.0 L 132.5 196.0 L 132.0 196.5 L 131.5 197.0 L 131.5 198.0 L 131.5 199.0 L 131.5 200.0 L 131.5 201.0 L 131.5 202.0 L 131.5 203.0 L 131.5 204.0 L 131.5 205.0 L 131.0 205.5 L 130.5 206.0 L 130.5 207.0 L 130.5 208.0 L 130.5 209.0 L 130.5 210.0 L 130.5 211.0 L 130.5 212.0 L 130.5 213.0 L 130.0 213.5 L 129.5 214.0 L 129.5 215.0 L 129.5 216.0 L 129.5 217.0 L 129.5 218.0 L 129.0 218.5 L 128.5 219.0 L 128.5 220.0 L 128.5 221.0 L 128.5 222.0 L 128.0 222.5 L 127.5 223.0 L 127.5 224.0 L 127.5 225.0 L 127.0 225.5 L 126.5 226.0 L 126.5 227.0 L 126.0 227.5 L 125.5 228.0 L 125.5 229.0 L 125.0 229.5 L 124.5 230.0 L 124.5 231.0 L 124.5 232.0 L 124.0 232.5 L 123.5 233.0 L 123.5 234.0 L 123.0 234.5 L 122.5 235.0 L 122.0 235.5 L 121.5 236.0 L 121.5 237.0 L 121.0 237.5 L 120.5 238.0 L 120.5 239.0 L 120.0 239.5 L 119.5 240.0 L 119.0 240.5 L 118.5 241.0 L 118.5 242.0 L 118.0 242.5 L 117.5 243.0 L 117.0 243.5 L 116.5 244.0 L 116.0 244.5 L 115.5 245.0 L 115.0 245.5 L 114.5 246.0 L 114.5 247.0 L 114.0 247.5 L 113.5 248.0 L 113.0 248.5 L 112.5 249.0 L 112.0 249.5 L 111.5 250.0 L 111.0 250.5 L 110.5 251.0 L 110.0 251.5 L 109.0 251.5 L 108.5 252.0 L 108.0 252.5 L 107.5 253.0 L 107.0 253.5 L 106.5 254.0 L 106.0 254.5 L 105.0 254.5 L 104.5 255.0 L 104.0 255.5 L 103.5 256.0 L 103.0 256.5 L 102.0 256.5 L 101.5 257.0 L 101.0 257.5 L 100.5 258.0 L 100.0 258.5 L 99.0 258.5 L 98.5 259.0 L 98.0 259.5 L 97.0 259.5 L 96.5 260.0 L 96.0 260.5 L 95.0 260.5 L 94.0 260.5 L 93.5 261.0 L 93.0 261.5 L 92.0 261.5 L 91.0 261.5 L 90.0 261.5 L 89.0 261.5 L 88.0 261.5 L 87.5 262.0 L 87.0 262.5 Z" fill="none" stroke="black" stroke-width="1" /></svg>